<?xml version="1.0" encoding="utf-8"?>
<!-- Generator: Adobe Illustrator 24.0.0, SVG Export Plug-In . SVG Version: 6.00 Build 0)  -->
<svg version="1.1" id="Layer_1" xmlns="http://www.w3.org/2000/svg" xmlns:xlink="http://www.w3.org/1999/xlink" x="0px" y="0px"
	 viewBox="0 0 400 400" style="enable-background:new 0 0 400 400;" xml:space="preserve">
<style type="text/css">
	.st0{fill:#efc463;}
</style>
<g>
	<path class="st0" d="M355.25,305.39c19.29-27.96,30.23-60,32.75-92.61c-42.47-4.8-90.7,11.58-128.24,47.8
		c-37.54,36.22-55.63,83.83-52.35,126.45c30.13-1.25,60.03-9.67,86.95-25.3l67.48,17.01c5.52,1.39,10.54-3.6,9.18-9.13
		L355.25,305.39z"/>
	<path class="st0" d="M139.29,135.73c37.54-36.22,55.63-83.83,52.35-126.45c-44.6,1.85-88.73,19.39-123.38,52.83
		c-34.65,33.44-53.76,76.91-57.2,121.42C53.52,188.34,101.76,171.95,139.29,135.73z"/>
	<path class="st0" d="M230.68,230.45c36.66-35.37,82.91-56.65,130.22-59.9c8.72-0.6,17.29-0.57,25.66,0.05
		c-5.53-37.74-22.49-74.17-50.99-103.71c-28.51-29.54-64.31-47.79-101.82-54.66c0.32,8.39,0.05,16.95-0.86,25.65
		c-4.94,47.17-27.86,92.63-64.52,128c-36.66,35.37-82.91,56.65-130.22,59.9c-8.72,0.6-17.29,0.57-25.66-0.05
		c5.53,37.74,22.49,74.17,50.99,103.71c28.51,29.54,64.31,47.79,101.82,54.66c-0.32-8.39-0.05-16.95,0.86-25.65
		C171.11,311.28,194.02,265.82,230.68,230.45z"/>
</g>
</svg>
